<svg xmlns="http://www.w3.org/2000/svg" width="512" height="512" viewBox="0 0 512 512" role="img" aria-label="Logo Snoopy Project 2">
  <defs>
    <linearGradient id="bg" x1="96" y1="64" x2="416" y2="448" gradientUnits="userSpaceOnUse">
      <stop offset="0" stop-color="#f8fafc"/>
      <stop offset="1" stop-color="#e5e7eb"/>
    </linearGradient>
    <linearGradient id="mark" x1="128" y1="116" x2="384" y2="396" gradientUnits="userSpaceOnUse">
      <stop offset="0" stop-color="#111827"/>
      <stop offset="1" stop-color="#374151"/>
    </linearGradient>
  </defs>
  <rect width="512" height="512" rx="112" fill="url(#bg)"/>
  <rect x="42" y="42" width="428" height="428" rx="92" fill="none" stroke="#111827" stroke-width="18"/>
  <path d="M150 148h212v54h-76v174h-60V202h-76v-54Z" fill="url(#mark)"/>
  <path d="M346 230h60v76c0 48-30 78-82 78-27 0-50-8-69-25l31-43c11 10 23 15 36 15 16 0 24-9 24-27v-74Z" fill="url(#mark)"/>
  <text x="256" y="435" text-anchor="middle" font-family="Arial, Helvetica, sans-serif" font-size="42" font-weight="800" fill="#111827">Snoopy Project 2</text>
</svg>
